# xmcd
#
# Track frame offsets: 
#        150
#        12039
#        25923
#        39176
#        52922
#        69704
#        80525
#        94355
#        107524
#        121058
#        137183
#        149008
#        161853
#
# Disc length: 2391 seconds
#
# Revision: 1
# Processed by: cddbd v1.5.2PL0 Copyright (c) Steve Scherf et al.
# Submitted via: ExactAudioCopy v0.99pb5
#
DISCID=ac09550d
DTITLE=Duelo - En Las Manos De Un Angel
DYEAR=2007
DGENRE=Latin
TTITLE0=En Las Manos De Un Angel
TTITLE1=Cuando Muere Un Amor
TTITLE2=Olvidaste
TTITLE3=Solo Contigo
TTITLE4=Un Dia De Estos
TTITLE5=Sentimientos Tontos
TTITLE6=Verte Enamorada
TTITLE7=Olvidame Tu
TTITLE8=Tan Solo
TTITLE9=Vete
TTITLE10=Sera Mejor
TTITLE11=Pajaro Sin Nido
TTITLE12=Solo Contigo (Balada)
EXTD=
EXTT0=
EXTT1=
EXTT2=
EXTT3=
EXTT4=
EXTT5=
EXTT6=
EXTT7=
EXTT8=
EXTT9=
EXTT10=
EXTT11=
EXTT12=
PLAYORDER=
